<svg xmlns="http://www.w3.org/2000/svg" id="Capa_1" data-name="Capa 1" viewBox="0 0 500 150.24"><defs><style>.cls-1{fill:#f2522e;}.cls-2{fill:#3d5a73;}</style></defs><path class="cls-1" d="M128.52,43.27a35.66,35.66,0,0,0-9.31-22.87A45.81,45.81,0,0,0,105.06,9.19C94,3.26,79.48,0,64.27,0S34.58,3.26,23.48,9.19A45.93,45.93,0,0,0,9.33,20.4,35.66,35.66,0,0,0,0,44.47v43.7a62.14,62.14,0,0,0,62.08,62.07h4.39a62.16,62.16,0,0,0,60.24-47.13l.75,0a29.94,29.94,0,0,0,1.06-59.86Zm-18.26,5.34a29.39,29.39,0,0,1-6.39,6,47.65,47.65,0,0,1-8.93,4.83L91.5,67l-3.22,7.12L80.64,91l-8.2-14.37-3.29-5.77L65.81,65l-1.54,0c-27.47,0-49.73-11.89-49.73-26.56,0-7.46,5.77-14.2,15-19A65.29,65.29,0,0,1,46.42,13.7a90.94,90.94,0,0,1,35.71,0A65.21,65.21,0,0,1,99,19.46C108.24,24.29,114,31,114,38.49A16.49,16.49,0,0,1,110.26,48.61Zm18.29,38.75V59a14.19,14.19,0,0,1,0,28.34Z"></path><path class="cls-2" d="M224,20.42H183.2a3.24,3.24,0,0,0-2.59,1,4.68,4.68,0,0,0-.89,3.1,6.68,6.68,0,0,0,.33,2.12c.22.65.42,1.2.61,1.64h16.91V73.69a4.22,4.22,0,0,0,1.22,3.38,5.91,5.91,0,0,0,3.85,1,11.11,11.11,0,0,0,2.54-.28c.81-.19,1.41-.34,1.79-.47v-49h14.56a3.16,3.16,0,0,0,2.54-1.13,4.56,4.56,0,0,0,.93-3,7.19,7.19,0,0,0-.32-2.21A6.49,6.49,0,0,0,224,20.42Z"></path><path class="cls-2" d="M257.32,34.89a21.5,21.5,0,0,0-10.42-2.45A23.22,23.22,0,0,0,238.49,34a19.33,19.33,0,0,0-6.81,4.41,20.31,20.31,0,0,0-4.56,7.14,26.78,26.78,0,0,0-1.64,9.77,25.84,25.84,0,0,0,3,13,19.48,19.48,0,0,0,8.41,7.94,28.19,28.19,0,0,0,12.64,2.68,30.14,30.14,0,0,0,7.89-1A15,15,0,0,0,263,75.33,4.7,4.7,0,0,0,265,71.62a4.1,4.1,0,0,0-.71-2.35,6.61,6.61,0,0,0-1.83-1.78,18.58,18.58,0,0,1-5.17,2.72,20.47,20.47,0,0,1-7.23,1.22q-6.76,0-10.85-3.43a13.58,13.58,0,0,1-4.34-7.56l27.78-3.94a5.52,5.52,0,0,0,3.15-1.32,4.53,4.53,0,0,0,1.08-3.38,19.87,19.87,0,0,0-2.54-10.06A17.67,17.67,0,0,0,257.32,34.89ZM234.37,53.6c.19-4.34,1.35-7.74,3.55-10.12a11.72,11.72,0,0,1,9-3.8,10.76,10.76,0,0,1,8.08,3,11.48,11.48,0,0,1,3.19,7.52Z"></path><path class="cls-2" d="M306.93,36.2q-5.07-3.75-13.62-3.76a37.58,37.58,0,0,0-7.1.66,24.58,24.58,0,0,0-6,1.88q-3.19,1.41-3.19,4.32a4,4,0,0,0,.65,2.16,8.28,8.28,0,0,0,1.51,1.79,35.14,35.14,0,0,1,6.24-2.45,26.1,26.1,0,0,1,7.29-1,12.64,12.64,0,0,1,7.46,2q2.78,2,2.78,6.3V50.2l-13.16,1.32q-7.43.75-11.46,4t-4,9.48q0,6.76,5.07,10.29c3.39,2.35,8.08,3.53,14.1,3.53a35.12,35.12,0,0,0,8.73-1,28.72,28.72,0,0,0,6.3-2.3,10.56,10.56,0,0,0,2.53-2.21A5.21,5.21,0,0,0,312,70V48Q312,40,306.93,36.2ZM303,69.46a13.78,13.78,0,0,1-3.57,1.46,21.64,21.64,0,0,1-5.92.7q-5.08,0-7.57-1.83a5.81,5.81,0,0,1-2.49-4.93,5.57,5.57,0,0,1,2.21-4.75,12.39,12.39,0,0,1,6.62-1.92L303,57.06Z"></path><path class="cls-2" d="M348.46,69.65a17.47,17.47,0,0,1-3.2,1.17,12.66,12.66,0,0,1-3.38.52,9.65,9.65,0,0,1-5.64-1.46c-1.38-1-2.06-2.61-2.06-4.93V42h12.49a3.19,3.19,0,0,0,2.4-.94,4,4,0,0,0,.89-2.82,6.57,6.57,0,0,0-.33-2.11A12.46,12.46,0,0,0,349,34.6H334.18V25A4,4,0,0,0,333,21.73a6,6,0,0,0-3.71-.94,12.38,12.38,0,0,0-2.49.24q-1.17.24-1.74.42V65.51c0,4.77,1.38,8.16,4.14,10.2s6.45,3.05,11.08,3.05c3.2,0,5.62-.5,7.28-1.5a4.43,4.43,0,0,0,2.49-3.85,4.49,4.49,0,0,0-.51-2.17A10.46,10.46,0,0,0,348.46,69.65Z"></path><path class="cls-2" d="M365.09,33.29a13.86,13.86,0,0,0-2.59.23,15.6,15.6,0,0,0-1.74.43V73.88A3.88,3.88,0,0,0,362,77.12a6,6,0,0,0,3.71,1,10.4,10.4,0,0,0,2.54-.28c.75-.19,1.32-.34,1.69-.47V37.52a4,4,0,0,0-1.17-3.29A5.92,5.92,0,0,0,365.09,33.29Z"></path><path class="cls-2" d="M365.37,14.69a5.48,5.48,0,0,0-4,1.59,5.25,5.25,0,0,0-1.6,3.86,5.21,5.21,0,0,0,1.6,3.9,6.11,6.11,0,0,0,8.13,0,5.32,5.32,0,0,0,1.55-3.9,5.36,5.36,0,0,0-1.55-3.86A5.47,5.47,0,0,0,365.37,14.69Z"></path><path class="cls-2" d="M439.49,34a23,23,0,0,0-8.83-1.6,22.14,22.14,0,0,0-9.2,1.79,26.81,26.81,0,0,0-5.27,3.15,13.29,13.29,0,0,0-5.35-3.53,23.92,23.92,0,0,0-8.45-1.41,30.26,30.26,0,0,0-15,4.14,9.29,9.29,0,0,0-2.77,2.58,6.1,6.1,0,0,0-.89,3.43V73.88A3.85,3.85,0,0,0,385,77.12a6.16,6.16,0,0,0,3.8,1,9.9,9.9,0,0,0,2.44-.28c.76-.19,1.32-.34,1.69-.47V42.68a18.57,18.57,0,0,1,4.14-2,15.79,15.79,0,0,1,5.17-.85,10,10,0,0,1,6.43,2q2.49,2,2.49,6.29V73.88a4,4,0,0,0,1.22,3.24,6,6,0,0,0,3.76,1,10.5,10.5,0,0,0,2.49-.28c.78-.19,1.36-.34,1.74-.47V47.19a14.45,14.45,0,0,0-.42-3.4,15,15,0,0,1,4-2.7,14,14,0,0,1,5.77-1.23,9.84,9.84,0,0,1,6.39,2q2.44,2,2.45,6.29V73.88a4,4,0,0,0,1.17,3.24,5.94,5.94,0,0,0,3.81,1,10.08,10.08,0,0,0,2.39-.28c.78-.19,1.39-.34,1.83-.47V47.66A15.48,15.48,0,0,0,445.55,39,13,13,0,0,0,439.49,34Z"></path><path class="cls-2" d="M498.92,55.18A4.53,4.53,0,0,0,500,51.8a19.87,19.87,0,0,0-2.54-10.06,17.71,17.71,0,0,0-7-6.85A21.57,21.57,0,0,0,480,32.44,23.22,23.22,0,0,0,471.58,34a19.33,19.33,0,0,0-6.81,4.41,20.46,20.46,0,0,0-4.56,7.14,26.78,26.78,0,0,0-1.64,9.77,25.84,25.84,0,0,0,3,13A19.48,19.48,0,0,0,470,76.18a28.19,28.19,0,0,0,12.64,2.68,30.14,30.14,0,0,0,7.89-1,15,15,0,0,0,5.54-2.58,4.7,4.7,0,0,0,2.07-3.71,4.09,4.09,0,0,0-.7-2.35,6.65,6.65,0,0,0-1.84-1.78,18.65,18.65,0,0,1-5.16,2.72,20.57,20.57,0,0,1-7.24,1.22q-6.76,0-10.85-3.43A13.58,13.58,0,0,1,468,60.44l27.78-3.94A5.52,5.52,0,0,0,498.92,55.18ZM467.46,53.6c.19-4.34,1.35-7.74,3.56-10.12a11.68,11.68,0,0,1,9-3.8c3.44,0,6.14,1,8.08,3a11.48,11.48,0,0,1,3.19,7.52Z"></path><path class="cls-2" d="M186.45,135.21l13.76-30.38h4.3l13.8,30.38h-4.56l-12.28-28h1.74l-12.29,28Zm5.86-7.6,1.18-3.47h17.1l1.25,3.47Z"></path><path class="cls-2" d="M236,135.56a17.36,17.36,0,0,1-6.41-1.16,14.9,14.9,0,0,1-5.07-3.25,15.18,15.18,0,0,1-3.37-4.93,16.51,16.51,0,0,1,0-12.41,15.18,15.18,0,0,1,3.39-4.93,15.39,15.39,0,0,1,5.1-3.25,18.34,18.34,0,0,1,12.89,0,13.3,13.3,0,0,1,5.05,3.54l-2.82,2.73a11.27,11.27,0,0,0-3.9-2.71,12.22,12.22,0,0,0-4.65-.89,12.77,12.77,0,0,0-4.75.87,11.46,11.46,0,0,0-3.8,2.43,10.92,10.92,0,0,0-2.49,3.71,12.67,12.67,0,0,0,0,9.33,10.92,10.92,0,0,0,2.49,3.71,11.46,11.46,0,0,0,3.8,2.43,12.77,12.77,0,0,0,4.75.87,12,12,0,0,0,4.65-.89,11,11,0,0,0,3.9-2.75l2.82,2.73a13.45,13.45,0,0,1-5.05,3.56A17.1,17.1,0,0,1,236,135.56Z"></path><path class="cls-2" d="M248.43,135.21l13.76-30.38h4.3l13.8,30.38h-4.56l-12.28-28h1.74l-12.29,28Zm5.86-7.6,1.18-3.47h17.1l1.25,3.47Z"></path><path class="cls-2" d="M284.8,135.21V104.83h12.81a18.52,18.52,0,0,1,8.57,1.9,14.19,14.19,0,0,1,5.77,5.34A16.35,16.35,0,0,1,312,128a14.12,14.12,0,0,1-5.77,5.34,18.53,18.53,0,0,1-8.57,1.91Zm4.34-3.78h8.21a14.07,14.07,0,0,0,6.53-1.43,10.3,10.3,0,0,0,4.27-4,12.5,12.5,0,0,0,0-12,10.44,10.44,0,0,0-4.27-4,14.07,14.07,0,0,0-6.53-1.43h-8.21Z"></path><path class="cls-2" d="M325,131.43H342.7v3.78H320.65V104.83h21.44v3.77H325Zm-.39-13.5h15.63v3.69H324.6Z"></path><path class="cls-2" d="M349.73,135.21V104.83h3.56l13.63,23H365l13.46-23H382l0,30.38h-4.16l-.05-23.83h1l-12,20.14h-2l-12.06-20.14h1.08v23.83Z"></path><path class="cls-2" d="M398.52,135.21V123.57l1,2.7-13.07-21.44h4.65l11,18.09h-2.52l11-18.09h4.29l-13,21.44,1-2.7v11.64Z"></path></svg>